<svg viewBox="0 0 42 26" xmlns="http://www.w3.org/2000/svg" xmlns:xlink="http://www.w3.org/1999/xlink">
    <g id="Page-1" stroke="none" stroke-width="1" fill="none" fill-rule="evenodd">
        <g id="WalletConnect_Desktop" transform="translate(-451.000000, -433.000000)" fill="#3B99FC" fill-rule="nonzero">
            <g id="Group-6" transform="translate(400.000000, 234.000000)">
                <g id="Group-3" transform="translate(40.000000, 92.000000)">
                    <g id="Group-15" transform="translate(0.000000, 88.000000)">
                        <g id="wallet-connect.37f2bc6e" transform="translate(11.000000, 19.000000)">
                            <path d="M8.60139601,5.07587657 C15.4489674,-1.62846671 26.5510742,-1.62846671 33.3986453,5.07587657 L34.2227616,5.882755 C34.5651401,6.21797214 34.5651401,6.76146657 34.2227616,7.09668386 L31.4036243,9.85685428 C31.2324349,10.024463 30.9548823,10.024463 30.7836929,9.85685428 L29.6496112,8.74649357 C24.8725743,4.06937614 17.1274671,4.06937614 12.3504301,8.74649357 L11.1359223,9.93559829 C10.9647329,10.1032069 10.6871801,10.1032069 10.515991,9.93559829 L7.69685371,7.17542785 C7.35447514,6.84021057 7.35447514,6.29671615 7.69685371,5.961499 L8.60139601,5.07587657 Z M39.2288875,10.7842009 L41.737925,13.2407664 C42.0803019,13.575982 42.0803039,14.1194732 41.7379294,14.454691 L30.4245054,25.5316498 C30.0821293,25.8668694 29.527024,25.8668732 29.184643,25.5316585 C29.1846416,25.5316571 29.18464,25.5316554 29.1846386,25.531654 L21.1550585,17.6700139 C21.0694639,17.5862096 20.9306875,17.5862096 20.8450929,17.6700139 C20.8450924,17.6700145 20.845092,17.670015 20.8450914,17.6700154 L12.8156824,25.5316498 C12.4733073,25.8668703 11.9182019,25.8668759 11.5758199,25.531662 C11.5758179,25.53166 11.5758157,25.531658 11.5758136,25.5316558 L0.262074858,14.4545499 C-0.0803035715,14.1193328 -0.0803035715,13.5758383 0.262074858,13.2406211 L2.77111701,10.7840597 C3.11349543,10.4488426 3.66860085,10.4488426 4.01097943,10.7840597 L12.0406763,18.6458097 C12.126271,18.729614 12.2650471,18.729614 12.3506419,18.6458097 C12.3506431,18.6458084 12.3506443,18.6458073 12.3506456,18.6458063 L20.37994,10.7840597 C20.7223107,10.4488349 21.2774162,10.4488223 21.6198025,10.7840317 C21.6198073,10.7840364 21.6198121,10.7840411 21.6198167,10.7840459 L29.649503,18.6458063 C29.7350976,18.7296105 29.873874,18.7296105 29.9594686,18.6458063 L37.9890251,10.7842009 C38.3314036,10.4489836 38.8865089,10.4489836 39.2288875,10.7842009 Z" id="WalletConnect"></path>
                        </g>
                    </g>
                </g>
            </g>
        </g>
    </g>
</svg>
